Coordinates
version=1
nRows=11
nColumns=40
inDegrees=yes

Units are S.I. units (second, meters, Newtons, ...)
Angles are in degrees.

endheader
time	pelvis_tilt	pelvis_list	pelvis_rotation	pelvis_tx	pelvis_ty	pelvis_tz	hip_flexion_r	hip_adduction_r	hip_rotation_r	knee_angle_r	knee_angle_r_beta	ankle_angle_r	subtalar_angle_r	mtp_angle_r	hip_flexion_l	hip_adduction_l	hip_rotation_l	knee_angle_l	knee_angle_l_beta	ankle_angle_l	subtalar_angle_l	mtp_angle_l	lumbar_extension	lumbar_bending	lumbar_rotation	arm_flex_r	arm_add_r	arm_rot_r	elbow_flex_r	pro_sup_r	wrist_flex_r	wrist_dev_r	arm_flex_l	arm_add_l	arm_rot_l	elbow_flex_l	pro_sup_l	wrist_flex_l	wrist_dev_l
     44.98500000	     -5.12053957	     -5.58216066	     -0.21521861	      1.08429860	      0.92204326	      0.48420068	     22.22082919	      2.30813333	    -15.26445884	     18.85366289	     18.85366289	      4.16329005	      0.50669244	     -1.70102795	      8.16452582	    -12.65287064	     -6.62074095	     45.31658472	     45.31658472	      8.59904261	    -15.77362890	     -8.48994077	    -10.73705774	      6.43091050	      2.01396989	     -1.42449795	    -13.19054874	     -5.39386113	     32.91376187	     45.20704730	      0.00000000	      0.00000000	     12.45628415	    -17.83769033	      2.09337933	     87.14488527	     47.21790484	      0.00000000	      0.00000000
     44.99657143	     -5.11266797	     -5.51900504	      0.08657658	      1.08401499	      0.92312929	      0.48573498	     21.46145574	      2.23101890	    -15.88046496	     18.54398129	     18.54398129	      4.56465300	      1.31414607	     -2.10568014	     10.73197139	    -12.83669411	     -5.30835240	     49.86133057	     49.86133057	      8.40517421	    -16.14184090	     -3.55596002	    -10.78978010	      6.42116828	      2.58532719	     -1.00152160	    -13.93795061	     -4.09115672	     36.58135410	     45.03597035	      0.00000000	      0.00000000	     12.55783476	    -16.64501644	      2.75120418	     81.98359728	     47.14918624	      0.00000000	      0.00000000
     45.00814286	     -5.09601945	     -5.56777242	      0.46363251	      1.08350175	      0.92399434	      0.48714156	     20.69566049	      2.29744203	    -16.40275982	     18.19333725	     18.19333725	      4.88147361	      1.78097155	     -2.47534683	     13.36630387	    -13.13848865	     -4.06819128	     54.14528593	     54.14528593	      8.18834332	    -16.28447857	      0.57242066	    -10.89946570	      6.49771699	      2.73656965	      0.05064733	    -14.55418980	     -3.46232938	     39.50526756	     44.96552350	      0.00000000	      0.00000000	     12.08853033	    -16.06338208	      3.83330934	     78.17310323	     47.08272152	      0.00000000	      0.00000000
     45.01971429	     -5.08598963	     -5.67091667	      0.84860885	      1.08277298	      0.92468047	      0.48847104	     19.98060039	      2.41069992	    -16.97942514	     17.89582571	     17.89582571	      5.19706654	      2.28283978	     -2.79112504	     15.97803956	    -13.44757813	     -2.89525984	     57.97165903	     57.97165903	      7.67561989	    -16.60177097	      3.25025489	    -10.99686190	      6.62560764	      2.86986910	      1.50707182	    -14.99714574	     -3.30213424	     41.64168247	     44.93817298	      0.00000000	      0.00000000	     11.69157347	    -15.31268691	      4.31652748	     74.01440306	     47.02768752	      0.00000000	      0.00000000
     45.03128571	     -5.01050997	     -5.77630252	      1.27581758	      1.08189454	      0.92536273	      0.48966835	     19.25011829	      2.52288782	    -17.50017682	     17.68497366	     17.68497366	      5.54516581	      2.63858253	     -3.01086438	     18.45123320	    -13.70004181	     -1.77381007	     61.27362831	     61.27362831	      7.02979007	    -16.99096407	      4.58114728	    -11.16660320	      6.73759060	      2.56930062	      3.46119892	    -15.26372305	     -3.28880406	     43.48636086	     44.90311549	      0.00000000	      0.00000000	     10.91153399	    -14.89581666	      4.75326779	     70.24223871	     46.95215734	      0.00000000	      0.00000000
     45.04285714	     -5.03959609	     -5.92786161	      1.67778069	      1.08077634	      0.92581103	      0.49079103	     18.64011498	      2.69773090	    -17.99341533	     17.43281123	     17.43281123	      5.82637774	      2.95284529	     -3.19606392	     21.09586737	    -13.98570112	     -0.75753560	     64.30642241	     64.30642241	      7.12346814	    -17.03060858	      6.83325355	    -11.19990198	      6.90717922	      3.09686569	      4.72519557	    -15.91699809	     -3.04164515	     45.85751285	     44.85351133	      0.00000000	      0.00000000	     11.01859847	    -13.81746278	      5.32615761	     65.22368838	     46.86415210	      0.00000000	      0.00000000
     45.05442857	     -5.00695976	     -6.08294957	      2.06565709	      1.07959074	      0.92631222	      0.49186924	     18.01074934	      2.89282906	    -18.38532094	     17.24943346	     17.24943346	      6.15354052	      3.13973921	     -3.26780617	     23.55435279	    -14.25263501	      0.14320107	     66.75368988	     66.75368988	      7.15647332	    -17.15282305	      8.04799113	    -11.32539410	      7.05648261	      3.28967415	      6.40969824	    -16.36624573	     -3.03309631	     48.13801848	     44.82605225	      0.00000000	      0.00000000	     10.70286270	    -13.17286150	      5.99067648	     60.80075469	     46.77427995	      0.00000000	      0.00000000
     45.06600000	     -4.96693714	     -6.22300744	      2.40983980	      1.07835662	      0.92683186	      0.49293925	     17.39139784	      3.09104851	    -18.70275244	     17.08417849	     17.08417849	      6.50219376	      3.29635294	     -3.27386903	     25.88641208	    -14.50427117	      0.88931532	     68.63691297	     68.63691297	      7.20091440	    -17.31811994	      8.63536973	    -11.43952519	      7.16144510	      3.41825330	      8.34509677	    -16.72803950	     -2.96615944	     50.06492297	     44.80497706	      0.00000000	      0.00000000	     10.27851875	    -12.55424834	      6.38613761	     56.44045951	     46.70156357	      0.00000000	      0.00000000
     45.07757143	     -4.95703618	     -6.38113745	      2.75406345	      1.07705480	      0.92732635	      0.49396694	     16.80334565	      3.32844990	    -18.98058216	     16.88516004	     16.88516004	      6.80597000	      3.34626546	     -3.27863373	     28.14465889	    -14.75870170	      1.55577134	     69.95357412	     69.95357412	      7.19342012	    -17.48560368	      8.59725418	    -11.55529111	      7.25688303	      3.12015389	     10.74615476	    -16.74395181	     -3.08883176	     51.62474283	     44.77740148	      0.00000000	      0.00000000	      8.97006051	    -12.44369809	      6.71959805	     53.88604989	     46.63474389	      0.00000000	      0.00000000
     45.08914286	     -4.88295512	     -6.46041683	      3.01513534	      1.07583243	      0.92796999	      0.49491753	     16.13041503	      3.50500095	    -19.14419064	     16.67113730	     16.67113730	      7.12573445	      3.45165555	     -3.22486040	     30.14110514	    -14.92997140	      2.02775902	     70.69984401	     70.69984401	      7.36807484	    -17.61313237	      8.73926784	    -11.67690308	      7.26508393	      2.95938177	     13.14175079	    -16.81839385	     -2.89529275	     53.27792859	     44.73766908	      0.00000000	      0.00000000	      8.10815879	    -12.08728458	      6.90825910	     50.02177990	     46.57232434	      0.00000000	      0.00000000
     45.10071429	     -4.82434314	     -6.53499680	      3.20690203	      1.07458376	      0.92862122	      0.49577763	     15.50045163	      3.68181816	    -19.23908525	     16.51177463	     16.51177463	      7.56594828	      3.57671814	     -3.00160765	     31.99131487	    -15.07646012	      2.38669634	     70.90078763	     70.90078763	      7.70787544	    -17.70523154	      9.25469894	    -11.77886960	      7.29039171	      3.72273240	     14.95813682	    -17.65885782	     -2.20192998	     55.02235384	     44.70281791	      0.00000000	      0.00000000	      8.42279204	    -10.91547967	      6.64046999	     44.13704208	     46.55081806	      0.00000000	      0.00000000
